<svg width="22" height="18" viewBox="0 0 22 18" fill="none" xmlns="http://www.w3.org/2000/svg">
<path fill-rule="evenodd" clip-rule="evenodd" d="M3.5 6.75C3.5 3.43629 6.18629 0.75 9.5 0.75C12.028 0.75 14.1893 2.31282 15.0733 4.52408C15.2135 4.50816 15.3559 4.5 15.5 4.5C17.5711 4.5 19.25 6.17893 19.25 8.25C19.25 8.44592 19.2349 8.63865 19.2058 8.82699C20.5744 9.59814 21.5 11.0653 21.5 12.75C21.5 15.2353 19.4853 17.25 17 17.25H5.75C2.85051 17.25 0.5 14.8995 0.5 12C0.5 9.89685 1.73627 8.08405 3.52024 7.2459C3.50683 7.08225 3.5 6.91686 3.5 6.75Z" fill="#fff"/>
</svg>
